<svg width="48" height="48" viewBox="0 0 50 50" fill="none" xmlns="http://www.w3.org/2000/svg">
<style>
    path {
      fill: #5200FF;
    }
    @media (prefers-color-scheme: dark) {
      path {
          fill: #fff;
      }
    }
  </style>
<path fill-rule="evenodd" clip-rule="evenodd" d="M22.8117 24.4897V32.8938C22.8117 34.0501 21.8703 35 20.7244 35C19.5784 35 18.6575 34.0501 18.6575 32.8938V24.4897C18.6575 23.3333 17.7162 22.3835 16.5702 22.3835C15.4242 22.3835 14.4829 23.3333 14.4829 24.4897V32.8938C14.4829 34.0501 13.5416 35 12.3956 35C11.2496 35 10.3288 34.0501 10.3288 32.8938V24.4897C10.3288 23.3333 9.38742 22.3835 8.24145 22.3835C7.09548 22.3835 6.15415 23.3333 6.15415 24.4897V32.8938C6.15415 34.0501 5.21281 35 4.06684 35C2.92087 35 2 34.0501 2 32.8938V24.4897C2 21.0206 4.80354 18.1917 8.24145 18.1917C9.83763 18.1917 11.2906 18.8112 12.3956 19.8024C13.5006 18.7906 14.9536 18.1917 16.5497 18.1917C20.0081 18.1917 22.8117 21.0206 22.8117 24.4897ZM33.5142 18.9351C32.3682 18.9351 31.4269 19.885 31.4269 21.0413C31.4269 22.1976 32.3682 23.1475 33.5142 23.1475C34.6602 23.1475 35.6015 22.1976 35.6015 21.0413C35.6015 19.885 34.6807 18.9351 33.5142 18.9351ZM35.6015 34.1534C36.6043 33.5752 36.9317 32.295 36.3587 31.2832C35.7857 30.2714 34.5169 29.941 33.5142 30.5192C33.1868 30.705 32.8389 30.8083 32.4706 30.8083C31.3246 30.8083 30.3833 29.8584 30.3833 28.7021V16.1062C30.3833 14.9499 29.4419 14 28.296 14C27.15 14 26.2087 14.9499 26.2087 16.1062V28.7021C26.2087 32.1711 29.0122 35 32.4501 35C33.5756 35 34.6602 34.7109 35.6015 34.1534ZM45.8948 17.469C44.7488 17.469 43.8075 18.4189 43.8075 19.5752C43.8075 20.7316 44.7488 21.6814 45.8948 21.6814C47.0408 21.6814 47.9821 20.7316 47.9821 19.5752C47.9821 18.4189 47.0408 17.469 45.8948 17.469ZM47.9616 34.1534C48.9644 33.5752 49.2918 32.295 48.7188 31.2832C48.1458 30.2714 46.8771 29.941 45.8743 30.5192C45.5469 30.705 45.199 30.8083 44.8307 30.8083C43.6847 30.8083 42.7434 29.8584 42.7434 28.7021V16.1062C42.7638 14.9499 41.8225 14 40.6765 14C39.5306 14 38.5892 14.9499 38.5892 16.1062V28.7021C38.5892 32.1711 41.3928 35 44.8307 35C45.9357 35 47.0203 34.7109 47.9616 34.1534Z"/>
</svg>
